<svg xmlns="http://www.w3.org/2000/svg" viewBox="0 0 32.82 32.82">
  <defs>
    <style>
      .cls-2, .cls-4 {
        fill: none;
      }

      .cls-3 {
        stroke: none;
      }
    </style>
  </defs>
  <g id="ICh7Jh.tif_1_" transform="translate(11.801 6.528)">
    <g id="Group_21" data-name="Group 21" transform="translate(-11.801 -6.528)">
      <g id="Group_22" data-name="Group 22">
        <path id="Path_28" data-name="Path 28" class="cls-1" d="M0,8.193V1.4A4.15,4.15,0,0,1,.023.866.849.849,0,0,1,1,0L12.347.068c.547,0,.828.266.866.881.03.554.03,1.116.03,1.671q0,4.647-.008,9.3a1.063,1.063,0,0,1-.273.79c-1.131,1.169-2.255,2.362-3.4,3.508a1.1,1.1,0,0,1-.714.243c-2.6.015-5.186.008-7.783.008a.851.851,0,0,1-1-.8A3.777,3.777,0,0,1,0,14.951V8.193Zm9.036,7.753V12.7c0-.509.114-.63.615-.638.85-.015,1.693-.03,2.544-.061.524-.015.524-.023.524-.57,0-1.838.008-3.668.008-5.505,0-1.595,0-3.189-.015-4.784C12.7.615,12.658.585,12.149.585Q6.853.551,1.557.524C.524.516.524.524.524,1.572v13.4c0,.167.008.327.023.494.038.334.182.494.57.494,2.225-.015,4.45-.008,6.682-.008C8.171,15.946,8.55,15.946,9.036,15.946Zm.516-.364c.987-1.033,1.914-2,2.863-3H9.553Z" transform="translate(10.594 7.733)"/>
        <path id="Path_31" data-name="Path 31" class="cls-1" d="M42.766,73.517h-3.3c-.038,0-.084.015-.114,0-.121-.084-.235-.175-.349-.258.114-.091.228-.243.342-.251C40,72.985,40.655,73,41.316,73h4.746a.566.566,0,0,1,.228.008,2.208,2.208,0,0,1,.281.251,1.447,1.447,0,0,1-.281.251.764.764,0,0,1-.3.015c-1.078-.008-2.157-.008-3.227-.008Z" transform="translate(-25.445 -59.716)"/>
        <path id="Path_32" data-name="Path 32" class="cls-1" d="M42.866,134.832H39.609c-.076,0-.175.023-.22-.015a2.014,2.014,0,0,1-.289-.281c.1-.084.182-.213.289-.228a6.32,6.32,0,0,1,.759-.008h6.06a.253.253,0,0,1,.076,0c.129.084.258.175.387.258-.129.091-.258.251-.395.251-1.131.03-2.27.015-3.409.023Z" transform="translate(-25.537 -116.362)"/>
        <path id="Path_33" data-name="Path 33" class="cls-1" d="M43.006,41.887H39.816a.8.8,0,0,1-.334-.03.332.332,0,0,1-.182-.235c0-.084.106-.182.19-.235a.578.578,0,0,1,.258-.023c2.21,0,4.427,0,6.637.008.076,0,.167-.023.22.015.091.061.22.167.213.251s-.129.182-.22.243c-.053.038-.144.023-.22.023H43A.024.024,0,0,0,43.006,41.887Z" transform="translate(-25.722 -30.487)"/>
        <path id="Path_34" data-name="Path 34" class="cls-1" d="M42.864,104.911H39.523c-.19,0-.425.03-.425-.243-.008-.3.243-.273.44-.273,2.225,0,4.45,0,6.682.015.144,0,.4.137.418.235.038.258-.205.266-.4.266Z" transform="translate(-25.535 -88.734)"/>
        <path id="Path_35" data-name="Path 35" class="cls-1" d="M41.554,166.964h1.929c.2,0,.425.015.387.273-.015.1-.243.235-.38.243-1.3.023-2.6.015-3.9.015-.2,0-.433,0-.38-.273.023-.106.243-.235.372-.235.661-.038,1.321-.023,1.974-.023Z" transform="translate(-25.629 -146.549)"/>
      </g>
      <!-- <g id="Ellipse_7" data-name="Ellipse 7" class="cls-2" transform="translate(0)">
        <circle class="cls-3" cx="16.41" cy="16.41" r="16.41"/>
        <circle class="cls-4" cx="16.41" cy="16.41" r="15.91"/>
      </g> -->
    </g>
  </g>
</svg>
