<svg id="Layer_1" data-name="Layer 1" xmlns="http://www.w3.org/2000/svg" viewBox="0 0 32.82 32.82">
	<defs>
		<style>.cls-1,.cls-2{fill:none;}.cls-2{stroke:#707070;}.cls-3{fill:#707070;}</style>
	</defs>
	<title>icon_showmap</title>
	<g id="Group_21" data-name="Group 21">
		<path id="Path_30" data-name="Path 30" class="cls-3" d="M17.4,16.7h.33C17.62,16.82,17.4,16.82,17.4,16.7Z"/>
		<g id="_5mXE0N" data-name="5mXE0N">
			<path class="cls-3" d="M26.32,15.22c0,2.19,0,4.37,0,6.55a.76.76,0,0,1-.43.75c-1.21.71-2.42,1.44-3.62,2.17a.66.66,0,0,1-.74,0c-1.34-.68-2.7-1.34-4-2a.73.73,0,0,0-.78,0c-1.2.67-2.42,1.32-3.62,2a.74.74,0,0,1-.82,0q-2-1.12-4-2.2a.66.66,0,0,1-.4-.66q0-6.6,0-13.19c0-.62.24-.77.8-.47,1.23.68,2.46,1.36,3.71,2a.72.72,0,0,0,.59,0c1.2-.63,2.39-1.26,3.56-1.94a1,1,0,0,1,1.1,0c1.3.68,2.62,1.31,3.92,2a.59.59,0,0,0,.65,0c1.09-.67,2.18-1.32,3.28-2,.18-.1.48-.21.59-.13a.8.8,0,0,1,.24.59C26.33,10.86,26.32,13,26.32,15.22ZM8.7,9.09a1.34,1.34,0,0,0,0,.22q0,6.11,0,12.21A.68.68,0,0,0,9,22c1.13.63,2.26,1.25,3.4,1.84a.72.72,0,0,0,.59,0c1.21-.64,2.41-1.28,3.6-2a.92.92,0,0,1,1,0c1.31.68,2.65,1.33,4,2a.59.59,0,0,0,.65,0c1-.62,2-1.22,3-1.81a.56.56,0,0,0,.3-.57V9.54a3.73,3.73,0,0,0,0-.41c-1.05.63-2.06,1.21-3.05,1.84a.91.91,0,0,1-1,0c-1.31-.68-2.64-1.33-4-2a.66.66,0,0,0-.7,0c-1,.55-2,1-2.91,1.62a1.82,1.82,0,0,1-2.32,0C10.64,10.06,9.67,9.62,8.7,9.09Z"/><path class="cls-3" d="M19.51,16.81c-.45-.32-.7-1-1.53-.72a2.41,2.41,0,0,1,1.27,1.16,1.3,1.3,0,0,1,.19,1.23c-.31.79-.74,1.54-1.13,2.31a1.88,1.88,0,0,1-.95-1.47,2,2,0,0,0-1.44-2A2.26,2.26,0,0,1,17,15.5a4,4,0,0,0,.74-.56,1.74,1.74,0,0,0,.23-.4l-.11-.08-1.16.74v-1c0-.06,0-.15,0-.17a7,7,0,0,1,1.5-.81,10.82,10.82,0,0,1,2.28-.34,11.19,11.19,0,0,1,1.63.13l2.13.23L23.15,14s0,.08,0,.1A1.28,1.28,0,0,1,22.77,16c-.22.15-.3.5-.48.8l-.71-.88-.48.88L20.7,16Z"/><path class="cls-3" d="M13.94,12.52l-.4.75.88.69c-.5.47-.87.86-1.28,1.19a1.12,1.12,0,0,0-.42,1.29,8.33,8.33,0,0,1,1,.28,2.3,2.3,0,0,1,.81.41c.59.54.65.66.11,1.25A3.49,3.49,0,0,0,14,20.09c-.06.21-.09.43-.13.65-.57-.06-.79-.24-.9-.76l-.06-.3a2.36,2.36,0,0,0-1-2c0-.1,0-.13,0-.15.34-.75.37-.78-.24-1.3a2.59,2.59,0,0,1-.87-1.69c-.06-.44-.24-.66-.71-.57,0,0-.11,0-.16,0a1.42,1.42,0,0,1,.83-1.16c1-.13,2-.24,3-.36Z"/><path class="cls-3" d="M22,19.66c-.17-.6,0-.94.49-1.12a7.34,7.34,0,0,0,1-.47,2,2,0,0,1,0,2.3C23,20.06,22.76,19.33,22,19.66Z"/>
			<path class="cls-3" d="M15.83,12.4c.32,1.12-.67,1.13-1.1,1.6-.36-.44-.54-.86-.16-1.35S15.43,12.6,15.83,12.4Z"/>
		</g>
	</g>
</svg>
