<svg xmlns="http://www.w3.org/2000/svg" viewBox="0 0 32.82 32.82">
  <defs>
    <style>
      .cls-2, .cls-5 {
        fill: none;
      }
      .cls-4 {
        stroke: none;
      }
    </style>
  </defs>
  <g id="Group_21" data-name="Group 21" transform="translate(0)">
    <!-- <g id="Ellipse_7" data-name="Ellipse 7" class="cls-2" transform="translate(0)">
      <circle class="cls-4" cx="16.41" cy="16.41" r="16.41"/>
      <circle class="cls-5" cx="16.41" cy="16.41" r="15.91"/>
    </g> -->
    <g id="Group_24" data-name="Group 24">
      <g id="KHuwoz.tif_1_" transform="translate(8.38 6.7)">
        <g id="Group_23" data-name="Group 23" transform="translate(0.079 -0.105)">
          <path id="Path_36" data-name="Path 36" class="cls-3" d="M.363,237.395c0-.014,0-.042,0-.042-.316-.2-.283-.518-.283-.829,0-1.178,0-2.355,0-3.533a.541.541,0,0,1,.5-.565.531.531,0,0,1,.495.575c0,1.05,0,2.1,0,3.156,0,.193.052.254.25.254q6.72-.007,13.444,0c.2,0,.25-.061.25-.254-.009-1.046-.009-2.087,0-3.133a.748.748,0,0,1,.16-.443.431.431,0,0,1,.692.033c.042.047.09.085.132.127V237.4Q8.18,237.39.363,237.395Z" transform="translate(-0.079 -221.468)"/>
          <path id="Path_37" data-name="Path 37" class="cls-3" d="M89.025,10.159c.32-.325.589-.608.862-.881.537-.537,1.079-1.074,1.625-1.6a.931.931,0,0,1,.33-.207.45.45,0,0,1,.575.236.385.385,0,0,1-.094.528c-.433.443-.876.876-1.314,1.314-.7.688-1.39,1.376-2.092,2.063-.32.311-.518.311-.839,0Q86.439,10,84.809,8.388c-.042-.042-.085-.09-.127-.137a.447.447,0,0,1,.014-.7A.531.531,0,0,1,85.4,7.6c.8.787,1.6,1.573,2.4,2.36.047.047.1.09.193.174.009-.132.019-.2.019-.273V.46a.536.536,0,0,1,.471-.565.541.541,0,0,1,.523.565V9.905A1.152,1.152,0,0,0,89.025,10.159Z" transform="translate(-80.54 0.105)"/>
        </g>
      </g>
    </g>
  </g>
</svg>
